<svg xmlns="http://www.w3.org/2000/svg" width="21.635" height="28.68" viewBox="0 0 21.635 28.68"><g transform="translate(0.25 0.25)"><path d="M2.65,0H17.485a2.65,2.65,0,0,1,2.65,2.65V24.53a2.65,2.65,0,0,1-2.65,2.65H2.65A2.65,2.65,0,0,1,0,24.53V2.65A2.65,2.65,0,0,1,2.65,0Z" transform="translate(0.5 0.5)" fill="none" stroke="#eaeaea" stroke-width="1.5"/><path d="M29.616,10.53s.359,2.567-1.36,2.567H19.914c-1.707,0-1.347-2.567-1.347-2.567" transform="translate(-13.524 -10.03)" fill="#eaeaea" stroke="#eaeaea" stroke-miterlimit="10" stroke-width="1.5"/><path d="M.21,0H13.059a.21.21,0,0,1,.21.21V.329a.21.21,0,0,1-.21.21H.21A.21.21,0,0,1,0,.329V.21A.21.21,0,0,1,.21,0Z" transform="translate(3.939 9.586)" fill="none" stroke="#eaeaea" stroke-width="1.5"/><path d="M.21,0H13.059a.21.21,0,0,1,.21.21V.329a.21.21,0,0,1-.21.21H.21A.21.21,0,0,1,0,.329V.21A.21.21,0,0,1,.21,0Z" transform="translate(3.939 15.745)" fill="none" stroke="#eaeaea" stroke-width="1.5"/><path d="M.21,0H13.059a.21.21,0,0,1,.21.21V.329a.21.21,0,0,1-.21.21H.21A.21.21,0,0,1,0,.329V.21A.21.21,0,0,1,.21,0Z" transform="translate(3.939 21.905)" fill="none" stroke="#eaeaea" stroke-width="1.5"/></g></svg>