<svg xmlns="http://www.w3.org/2000/svg" width="21.58" height="28.78" viewBox="0 0 21.58 28.78"><path d="M2.65,0H17.93a2.65,2.65,0,0,1,2.65,2.65V25.13a2.65,2.65,0,0,1-2.65,2.65H2.65A2.65,2.65,0,0,1,0,25.13V2.65A2.65,2.65,0,0,1,2.65,0Z" transform="translate(0.5 0.5)" fill="none" stroke="#eaeaea" stroke-width="1"/><path d="M16.459,1.62s.367,2.623-1.312,2.623h-8.6C4.8,4.243,5.231,1.62,5.231,1.62" transform="translate(-0.023 -1.12)" fill="#eaeaea" stroke="#eaeaea" stroke-miterlimit="10" stroke-width="1"/><path d="M.21,0H13.352a.21.21,0,0,1,.21.21V.341a.21.21,0,0,1-.21.21H.21A.21.21,0,0,1,0,.341V.21A.21.21,0,0,1,.21,0Z" transform="translate(4.015 11.098)" fill="#eaeaea" stroke="#eaeaea" stroke-width="0.5"/><path d="M.21,0H13.352a.21.21,0,0,1,.21.21V.341a.21.21,0,0,1-.21.21H.21A.21.21,0,0,1,0,.341V.21A.21.21,0,0,1,.21,0Z" transform="translate(4.015 7.465)" fill="#eaeaea" stroke="#eaeaea" stroke-width="0.5"/><path d="M.21,0H13.352a.21.21,0,0,1,.21.21V.341a.21.21,0,0,1-.21.21H.21A.21.21,0,0,1,0,.341V.21A.21.21,0,0,1,.21,0Z" transform="translate(4.015 23.69)" fill="#eaeaea" stroke="#eaeaea" stroke-width="0.5"/><path d="M6.17,10.892l2.82,2.833,2.886-2.886" transform="translate(1.767 3.222)" fill="none" stroke="#eaeaea" stroke-miterlimit="10" stroke-width="0.6"/><path d="M0,0V4.328" transform="translate(10.757 16.948)" fill="none" stroke="#eaeaea" stroke-width="0.6"/><path d="M0,0H4.643" transform="translate(8.435 16.948)" fill="none" stroke="#eaeaea" stroke-width="0.6"/><path d="M0,0H4.643" transform="translate(8.435 18.391)" fill="none" stroke="#eaeaea" stroke-width="0.6"/><path d="M4.158,0H0" transform="translate(2.861 17.669)" fill="none" stroke="#eaeaea" stroke-width="0.6"/><path d="M4.158,0H0" transform="translate(14.561 17.669)" fill="none" stroke="#eaeaea" stroke-width="0.6"/></svg>