<svg xmlns="http://www.w3.org/2000/svg" width="36.461" height="24.527" viewBox="0 0 36.461 24.527"><g transform="translate(0.424 0.5)"><path d="M45.236,15H17.927a2.147,2.147,0,0,0-2.147,2.147v2.223H41.3a2.147,2.147,0,0,1,2.147,2.166L43.621,34h1.615a2.166,2.166,0,0,0,2.147-2.147v-14.8A2.166,2.166,0,0,0,45.236,15Z" transform="translate(-11.846 -15)" fill="none" stroke="#eaeaea" stroke-miterlimit="10" stroke-width="1"/><path d="M1.13,0H30.492a1.13,1.13,0,0,1,1.13,1.13v16.9a1.13,1.13,0,0,1-1.13,1.13H1.13A1.13,1.13,0,0,1,0,18.026V1.13A1.13,1.13,0,0,1,1.13,0Z" transform="translate(0.076 4.371)" fill="none" stroke="#eaeaea" stroke-width="1"/><path d="M6.69,5.035l4.086,4.086L14.957,4.94" transform="translate(5.529 3.783)" fill="none" stroke="#eaeaea" stroke-miterlimit="10" stroke-width="1"/><path d="M0,0V6.271" transform="translate(16.305 12.923)" fill="none" stroke="#eaeaea" stroke-width="1"/><path d="M0,0H6.727" transform="translate(12.942 12.923)" fill="none" stroke="#eaeaea" stroke-width="1"/><path d="M0,0H6.727" transform="translate(12.942 15.013)" fill="none" stroke="#eaeaea" stroke-width="1"/><path d="M19.544,17.3a5.834,5.834,0,0,1-5.834,5.834" transform="translate(-13.71 -12.929)" fill="none" stroke="#eaeaea" stroke-miterlimit="10" stroke-width="1"/><path d="M27.32,17.3a5.834,5.834,0,0,0,5.834,5.834" transform="translate(-1.456 -12.929)" fill="none" stroke="#eaeaea" stroke-miterlimit="10" stroke-width="1"/><path d="M33.154,24.32a5.815,5.815,0,0,0-5.834,5.815" transform="translate(-1.456 -6.608)" fill="none" stroke="#eaeaea" stroke-miterlimit="10" stroke-width="1"/><path d="M19.544,30.135A5.815,5.815,0,0,0,13.71,24.32" transform="translate(-13.71 -6.608)" fill="none" stroke="#eaeaea" stroke-miterlimit="10" stroke-width="1"/><path d="M6.024,0H0" transform="translate(4.884 13.968)" fill="none" stroke="#eaeaea" stroke-width="1"/><path d="M6.024,0H0" transform="translate(21.835 13.968)" fill="none" stroke="#eaeaea" stroke-width="1"/></g></svg>