<svg xmlns="http://www.w3.org/2000/svg" width="27.441" height="41.38" viewBox="0 0 27.441 41.38"><g transform="translate(-58.5 -414.416)"><path d="M2.65,0H15.862a2.65,2.65,0,0,1,2.65,2.65V22.339a2.65,2.65,0,0,1-2.65,2.65H2.65A2.65,2.65,0,0,1,0,22.339V2.65A2.65,2.65,0,0,1,2.65,0Z" transform="translate(66.929 425.862)" fill="none" stroke="#eaeaea" stroke-width="1"/><path d="M24.833,13.1s.33,2.36-1.239,2.36H15.913c-1.569,0-1.239-2.36-1.239-2.36" transform="translate(56.431 412.774)" fill="#eaeaea" stroke="#eaeaea" stroke-miterlimit="10" stroke-width="1"/><path d="M.21,0H11.99a.21.21,0,0,1,.21.21V.286a.21.21,0,0,1-.21.21H.21A.21.21,0,0,1,0,.286V.21A.21.21,0,0,1,.21,0Z" transform="translate(70.091 434.215)" fill="none" stroke="#eaeaea" stroke-width="1"/><path d="M.21,0H11.99a.21.21,0,0,1,.21.21V.286a.21.21,0,0,1-.21.21H.21A.21.21,0,0,1,0,.286V.21A.21.21,0,0,1,.21,0Z" transform="translate(70.091 439.878)" fill="none" stroke="#eaeaea" stroke-width="1"/><path d="M.21,0H11.99a.21.21,0,0,1,.21.21V.286a.21.21,0,0,1-.21.21H.21A.21.21,0,0,1,0,.286V.21A.21.21,0,0,1,.21,0Z" transform="translate(70.091 445.542)" fill="none" stroke="#eaeaea" stroke-width="1"/><path d="M18.4,7.86s.3,2.85-1.268,2.85H9.465C7.884,10.71,8.2,8.077,8.2,8.077" transform="translate(55.269 411.919)" fill="#eaeaea" stroke="#eaeaea" stroke-miterlimit="10" stroke-width="1"/><path d="M8.66,4.457s14.158-3.2,16.825,4.719" transform="translate(55.354 411.104)" fill="none" stroke="#eaeaea" stroke-miterlimit="10" stroke-width="1" stroke-dasharray="1"/><path d="M21.146,4.49,17.3,5.859l2.891,2.029Z" transform="translate(61.522 415.142)" fill="#eaeaea"/><path d="M24.985,38.209S10.826,41.407,8.16,33.49" transform="translate(55.264 416.441)" fill="none" stroke="#eaeaea" stroke-miterlimit="10" stroke-width="1" stroke-dasharray="1"/><path d="M2.71,31.238l3.835-1.38L3.654,27.84Z" transform="translate(58.897 419.342)" fill="#eaeaea"/><path d="M12.339,28.074H7.808a.26.26,0,0,1-.248-.248.248.248,0,0,1,.248-.248h4.531V22.422H7.808a.26.26,0,0,1-.248-.248.248.248,0,0,1,.248-.248h4.531V17.077a2.891,2.891,0,0,1,0-.319H7.808a.26.26,0,0,1-.248-.248.248.248,0,0,1,.248-.236h4.649a3.127,3.127,0,0,1,3.009-2.36h7.457V11.037A3.127,3.127,0,0,0,19.8,7.91H7.537A3.127,3.127,0,0,0,4.41,11.037V29.761A3.138,3.138,0,0,0,7.537,32.9h4.8Z" transform="translate(54.59 411.84)" fill="none" stroke="#eaeaea" stroke-miterlimit="10" stroke-width="1"/></g></svg>