<svg xmlns="http://www.w3.org/2000/svg" width="49.28" height="49.28" viewBox="0 0 49.28 49.28"><g transform="translate(0 -0.01)"><path d="M17.14,42.02A24.14,24.14,0,1,1,41.28,66.16,24.14,24.14,0,0,1,17.14,42.02" transform="translate(-16.64 -17.37)" fill="none" stroke="#505b64" stroke-miterlimit="10" stroke-width="1"/><path d="M8.02,0A8.02,8.02,0,1,1,0,8.02,8.02,8.02,0,0,1,8.02,0Z" transform="translate(16.62 13.028)" fill="none" stroke="#505b64" stroke-width="1"/><path d="M38.691,51.541a24.1,24.1,0,0,0,19.051-9.363,22.919,22.919,0,0,0-38.1,0,24.1,24.1,0,0,0,19.051,9.363Z" transform="translate(-14.051 -2.751)" fill="none" stroke="#505b64" stroke-miterlimit="10" stroke-width="1"/></g></svg>