<svg xmlns="http://www.w3.org/2000/svg" width="42.127" height="38.453" viewBox="0 0 42.127 38.453"><g transform="translate(-3.529 16.376) rotate(-30)"><path d="M.57,0H7.989a.57.57,0,0,1,.57.57v.806a.57.57,0,0,1-.57.57H.57A.57.57,0,0,1,0,1.376V.57A.57.57,0,0,1,.57,0Z" transform="translate(30.685 20.405) rotate(45)" fill="none" stroke="#eaeaea" stroke-width="1"/><path d="M1.41,0h3.3a1.41,1.41,0,0,1,1.41,1.41V13.852a1.41,1.41,0,0,1-1.41,1.41H1.41A1.41,1.41,0,0,1,0,13.852V1.41A1.41,1.41,0,0,1,1.41,0Z" transform="translate(0.5 7.558)" fill="none" stroke="#eaeaea" stroke-width="1"/><path d="M27.818,22.846V8.564a.407.407,0,0,0-.687-.28l-16.8,8.394v12.35l16.8,8.394a.407.407,0,0,0,.687-.293Z" transform="translate(-1.372 -7.67)" fill="none" stroke="#eaeaea" stroke-miterlimit="10" stroke-width="1"/><path d="M.56,0H8a.56.56,0,0,1,.56.56v.826a.56.56,0,0,1-.56.56H.56A.56.56,0,0,1,0,1.386V.56A.56.56,0,0,1,.56,0Z" transform="translate(29.306 8.264) rotate(-45)" fill="none" stroke="#eaeaea" stroke-width="1"/><path d="M.56,0H8a.56.56,0,0,1,.56.56v.826a.56.56,0,0,1-.56.56H.56A.56.56,0,0,1,0,1.386V.56A.56.56,0,0,1,.56,0Z" transform="translate(31.342 14.044)" fill="none" stroke="#eaeaea" stroke-width="1"/></g></svg>