<svg xmlns="http://www.w3.org/2000/svg" width="27.498" height="28.181" viewBox="0 0 27.498 28.181"><g transform="translate(-58.464 -681.49)"><path d="M25.543,16.916a11.088,11.088,0,0,0,.085-1.325,8.379,8.379,0,0,0-.1-1.325L28.4,12.023a.7.7,0,0,0,.17-.866L25.849,6.451a.691.691,0,0,0-.832-.306L21.636,7.5a9.953,9.953,0,0,0-2.293-1.325l-.51-3.6A.678.678,0,0,0,18.153,2H12.717a.661.661,0,0,0-.663.578l-.51,3.6A10.219,10.219,0,0,0,9.251,7.5L5.871,6.145a.672.672,0,0,0-.832.306L2.32,11.157a.658.658,0,0,0,.17.866l2.871,2.242a8.006,8.006,0,0,0-.017,2.65L2.473,19.158a.7.7,0,0,0-.17.866L5.021,24.73a.691.691,0,0,0,.832.306l3.381-1.359A9.953,9.953,0,0,0,11.528,25l.51,3.6a.691.691,0,0,0,.68.578h5.436a.649.649,0,0,0,.663-.578l.51-3.6a10.219,10.219,0,0,0,2.293-1.325L25,25.036a.672.672,0,0,0,.832-.306l2.718-4.706a.658.658,0,0,0-.17-.866l-2.837-2.242ZM15.435,20.687a5.1,5.1,0,1,1,5.1-5.1A5.111,5.111,0,0,1,15.435,20.687Z" transform="translate(56.778 679.99)" fill="none" stroke="#eaeaea" stroke-width="1"/></g></svg>