<svg xmlns="http://www.w3.org/2000/svg" width="33.015" height="32.11" viewBox="0 0 33.015 32.11"><g transform="translate(-0.003 0.087)"><rect width="13.96" height="18.821" rx="2.65" transform="translate(11.392 6.591)" fill="none" stroke="#eaeaea" stroke-miterlimit="10" stroke-width="1"/><path d="M19.618,8.93s.246,1.757-1,1.757H12.884c-1.182,0-.936-1.741-.936-1.741" transform="translate(2.597 -2.339)" fill="#eaeaea" stroke="#eaeaea" stroke-miterlimit="10" stroke-width="1"/><rect width="9.197" height="0.378" rx="0.11" transform="translate(13.774 12.881)" fill="none" stroke="#eaeaea" stroke-miterlimit="10" stroke-width="1"/><rect width="9.197" height="0.378" rx="0.11" transform="translate(13.774 17.152)" fill="none" stroke="#eaeaea" stroke-miterlimit="10" stroke-width="1"/><rect width="9.197" height="0.378" rx="0.11" transform="translate(13.774 21.422)" fill="none" stroke="#eaeaea" stroke-miterlimit="10" stroke-width="1"/><path d="M29.307,31.68A15.487,15.487,0,1,0,5.51,12.1" transform="translate(-1.525 -4.74)" fill="none" stroke="#eaeaea" stroke-miterlimit="10" stroke-width="1"/><path d="M17.32,23.872a15.93,15.93,0,0,0,2.792-1.642" transform="translate(6.061 6.205)" fill="none" stroke="#eaeaea" stroke-miterlimit="10" stroke-width="1"/><path d="M13.34,24.335a15.356,15.356,0,0,0,4.188-.575" transform="translate(3.505 7.187)" fill="none" stroke="#eaeaea" stroke-miterlimit="10" stroke-width="1"/><path d="M7.812,7.609.52,3.06l.148,7.916Z" transform="translate(0 1.675)" fill="none" stroke="#eaeaea" stroke-miterlimit="10" stroke-width="1"/></g></svg>