<svg xmlns="http://www.w3.org/2000/svg" width="20.609" height="18.17" viewBox="0 0 20.609 18.17"><g transform="translate(0.034)"><path d="M36.143,21.722c-.484-1.867-2.192-1.812-4.211-1.812H21.041c-2.019,0-3.727-.055-4.211,1.812a23.7,23.7,0,0,0-.138,2.538L16.65,29.7h5.366V26.355h8.99V29.7h5.248V24.259a23.7,23.7,0,0,0-.111-2.538Z" transform="translate(-16.18 -14.95)" fill="none" stroke="#f7fbff" stroke-miterlimit="10" stroke-width="1"/><path d="M0,0H8.927V6.265H0Z" transform="translate(5.857 11.405)" fill="none" stroke="#f7fbff" stroke-width="1"/><path d="M0,0H8.927V4.46H0Z" transform="translate(5.857 0.5)" fill="none" stroke="#f7fbff" stroke-width="1"/><path d="M.934,0A.934.934,0,1,1,0,.934.934.934,0,0,1,.934,0Z" transform="translate(2.828 7.249)" fill="#fff" stroke="#f7fbff" stroke-width="1"/></g></svg>