<svg xmlns="http://www.w3.org/2000/svg" width="40.699" height="28.98" viewBox="0 0 40.699 28.98"><g transform="translate(0 -0.073)"><path d="M0,0H5.057V10.551H0Z" transform="translate(0.5 15.152)" fill="none" stroke="#eaeaea" stroke-width="1"/><path d="M21.4,23.375v9.318a15.723,15.723,0,0,1,3.953-1.284,4.223,4.223,0,0,1,2.22.18c2.567.911,10.127,3.337,13.464,2.375s8.24-5.352,9.575-6.623a.719.719,0,0,0-.321-1.219,6.148,6.148,0,0,0-3.016.5c-4.017,1.386-10.05,4.094-14.337.911a.167.167,0,0,1,.09-.3c1.656,0,7.124,0,7.7-.064s1.348-.988-1.977-2.285S28.19,21.706,21.4,23.375Z" transform="translate(-14.097 -7.992)" fill="none" stroke="#eaeaea" stroke-miterlimit="10" stroke-width="1"/><path d="M5.442,0A5.442,5.442,0,1,1,0,5.442,5.442,5.442,0,0,1,5.442,0Z" transform="translate(22.346 5.218)" fill="none" stroke="#eaeaea" stroke-width="1"/><path d="M3.838,0A3.838,3.838,0,1,1,0,3.838,3.838,3.838,0,0,1,3.838,0Z" transform="translate(23.95 6.822)" fill="none" stroke="#eaeaea" stroke-width="1"/><path d="M48.615,35.517A14.029,14.029,0,1,0,27,17.778" transform="translate(-12.51 -11.11)" fill="none" stroke="#eaeaea" stroke-miterlimit="10" stroke-width="1"/><path d="M40.71,32.807a14.285,14.285,0,0,0,2.567-1.527" transform="translate(-8.623 -5.564)" fill="none" stroke="#eaeaea" stroke-miterlimit="10" stroke-width="1"/><path d="M36.09,33.606a13.7,13.7,0,0,0,3.735-.526" transform="translate(-9.932 -5.054)" fill="none" stroke="#eaeaea" stroke-miterlimit="10" stroke-width="1"/><path d="M16.187,7.031,8.37,4.04l1.6,7.521Z" transform="translate(2.231 0.973)" fill="none" stroke="#eaeaea" stroke-miterlimit="10" stroke-width="1"/></g></svg>