<svg xmlns="http://www.w3.org/2000/svg" width="27.93" height="27.93" viewBox="0 0 27.93 27.93"><g transform="translate(-0.005 -0.005)"><path d="M0,0H8.648V8.648H0Z" transform="translate(0.38 0.38)" fill="none" stroke="#eaeaea" stroke-width="0.75"/><path d="M0,0H8.648V8.648H0Z" transform="translate(0.38 18.912)" fill="none" stroke="#eaeaea" stroke-width="0.75"/><path d="M0,0H8.648V8.648H0Z" transform="translate(18.912 0.38)" fill="none" stroke="#eaeaea" stroke-width="0.75"/><path d="M0,0H3.423V8.739H0Z" transform="translate(14.915 9.591)" fill="#eaeaea" stroke="#eaeaea" stroke-width="0.75"/><path d="M0,0H8.739V3.423H0Z" transform="translate(9.591 14.915)" fill="#eaeaea" stroke="#eaeaea" stroke-width="0.75"/><path d="M20.481,22.032H8.92V16.661h2.913V13.384h6.973V7.03h1.675Z" transform="translate(7.079 5.528)" fill="#eaeaea" stroke="#eaeaea" stroke-miterlimit="10" stroke-width="0.75"/><path d="M0,0H8.321V2.385H0Z" transform="translate(0.726 11.974)" fill="#eaeaea" stroke="#eaeaea" stroke-width="0.75"/><path d="M0,0H8.321V2.385H0Z" transform="translate(14.323 0.69) rotate(90)" fill="#eaeaea" stroke="#eaeaea" stroke-width="0.75"/><path d="M0,0H2.185V2.185H0Z" transform="translate(3.603 3.603)" fill="#eaeaea" stroke="#eaeaea" stroke-width="0.75"/><path d="M0,0H2.185V2.185H0Z" transform="translate(3.603 22.153)" fill="#eaeaea" stroke="#eaeaea" stroke-width="0.75"/><path d="M0,0H2.185V2.185H0Z" transform="translate(22.153 3.603)" fill="#eaeaea" stroke="#eaeaea" stroke-width="0.75"/></g></svg>