<svg xmlns="http://www.w3.org/2000/svg" width="35.462" height="35.692" viewBox="0 0 35.462 35.692"><g transform="translate(-54.5 -592.469)"><path d="M25.414,2.83s.365,2.605-1.381,2.605H15.565C13.833,5.435,14.2,2.83,14.2,2.83" transform="translate(56.096 590.139)" fill="#eaeaea" stroke="#eaeaea" stroke-miterlimit="10" stroke-width="1"/><path d="M.21,0H11.957a.21.21,0,0,1,.21.21V.337a.21.21,0,0,1-.21.21H.21A.21.21,0,0,1,0,.337V.21A.21.21,0,0,1,.21,0Z" transform="translate(70.463 602.193)" fill="none" stroke="#eaeaea" stroke-width="1"/><path d="M13.594,15.257h6.982l.078-.547H13.594a.287.287,0,0,0-.274.274.274.274,0,0,0,.274.274Z" transform="translate(55.84 593.736)" fill="none" stroke="#eaeaea" stroke-miterlimit="10" stroke-width="1"/><path d="M23.338,15.257h.169a.274.274,0,0,0,0-.547H23.26Z" transform="translate(58.849 593.736)" fill="none" stroke="#eaeaea" stroke-miterlimit="10" stroke-width="1"/><path d="M4.781,0A4.781,4.781,0,1,1,0,4.781,4.781,4.781,0,0,1,4.781,0Z" transform="translate(60.888 600.317)" fill="none" stroke="#eaeaea" stroke-width="1"/><path d="M31.191,24.87a8.506,8.506,0,0,0,.065-1.016,6.422,6.422,0,0,0-.078-1.016l2.2-1.72a.534.534,0,0,0,.13-.664l-2.084-3.661a.534.534,0,0,0-.638-.234L28.182,17.6a7.634,7.634,0,0,0-1.759-1.016l-.391-2.762a.521.521,0,0,0-.521-.443H21.356a.508.508,0,0,0-.508.443l-.391,2.762A7.816,7.816,0,0,0,18.7,17.6l-2.605-1.042a.521.521,0,0,0-.6.234l-.573.99a10.773,10.773,0,0,1,4.729,5.211A3.908,3.908,0,1,1,20.47,26.3q0,.443,0,.9h-7.1l2.123,3.661a.534.534,0,0,0,.638.234l2.605-1.042a7.634,7.634,0,0,0,1.707,1.068l.391,2.762a.534.534,0,0,0,.521.443h4.169a.5.5,0,0,0,.508-.443l.391-2.762a7.816,7.816,0,0,0,1.759-1.016l2.605,1.042a.521.521,0,0,0,.638-.234l2.071-3.7a.508.508,0,0,0-.13-.664Z" transform="translate(55.855 593.333)" fill="none" stroke="#eaeaea" stroke-miterlimit="10" stroke-width="1"/><path d="M23.788,26.479H2.45a10.669,10.669,0,0,1,21.338,0Z" transform="translate(52.55 594.069)" fill="none" stroke="#eaeaea" stroke-miterlimit="10" stroke-width="1"/><path d="M16.32,19.987a.521.521,0,0,1,.638-.234l2.605,1.042a7.816,7.816,0,0,1,1.759-1.016l.391-2.762a.508.508,0,0,1,.508-.443H26.39a.521.521,0,0,1,.521.443l.391,2.762a7.634,7.634,0,0,1,1.759,1.016l2.032-.808V6.3A3.478,3.478,0,0,0,27.64,2.83H14.105A3.478,3.478,0,0,0,10.64,6.3V10.2h.078a4.781,4.781,0,0,1-.078,9.562h0a10.617,10.617,0,0,1,5.081,1.3Z" transform="translate(55.029 590.139)" fill="none" stroke="#eaeaea" stroke-miterlimit="10" stroke-width="1"/><path d="M25.662,21.23H18.51" transform="translate(57.411 595.709)" fill="none" stroke="#eaeaea" stroke-miterlimit="10" stroke-width="1"/></g></svg>