<svg xmlns="http://www.w3.org/2000/svg" width="52.389" height="44.82" viewBox="0 0 52.389 44.82"><g transform="translate(-11.18 -18.34)"><path d="M50.472,18.34H24.277L11.18,40.75l13.1,22.41H50.472l13.1-22.41ZM37.374,47.8a6.905,6.905,0,1,1,6.989-6.9A6.947,6.947,0,0,1,37.374,47.8Z" fill="#fff" opacity="0.448"/><path d="M202.782,51.955V29.545L183.136,18.34,163.49,29.545v22.41L183.136,63.16Zm-27.788-11.2a8.143,8.143,0,1,1,8.142,8.043A8.093,8.093,0,0,1,174.994,40.75Z" transform="translate(-145.761)" fill="#fdfdfd" opacity="0.445"/><path d="M192.959,148.63H173.313l-9.823,16.807,9.823,16.807h19.646l9.823-16.807Zm-9.823,26.033a9.37,9.37,0,1,1,9.485-9.37A9.428,9.428,0,0,1,183.136,174.663Z" transform="translate(-145.761 -124.688)" fill="#fff" opacity="0.842"/></g></svg>