<svg xmlns="http://www.w3.org/2000/svg" width="91.836" height="38.886" viewBox="0 0 91.836 38.886"><path d="M15.39,165.773c0-7.467,5.825-13.663,14.3-13.663,8.421,0,14.246,6.2,14.246,13.663,0,7.52-5.825,13.716-14.246,13.716C21.215,179.489,15.39,173.292,15.39,165.773Zm22.825,0a8.553,8.553,0,1,0-8.526,8.686A8.414,8.414,0,0,0,38.215,165.773Z" transform="translate(-15.39 -140.603)" fill="#f0f0f0"/><path d="M866.158,27.11a14.509,14.509,0,0,0-8.578,2.673V16.42h-5.72V40.853h.015c0,.11-.015.217-.015.328a14.273,14.273,0,0,0,28.545,0A13.868,13.868,0,0,0,866.158,27.11Zm0,23.015c-4.925,0-8.578-3.873-8.578-8.945a8.559,8.559,0,1,1,17.1,0C874.685,46.252,871.084,50.125,866.158,50.125Z" transform="translate(-788.569 -16.42)" fill="#f0f0f0"/><path d="M516.7,157.3h5.72v4.5a11.212,11.212,0,0,1,9.586-5.19,1.988,1.988,0,0,1,.529.053v5.72a11.08,11.08,0,0,0-1.589-.106,9.429,9.429,0,0,0-8.526,5.084V183.3H516.7Z" transform="translate(-478.7 -144.759)" fill="#f0f0f0"/></svg>