<svg xmlns="http://www.w3.org/2000/svg" width="85.033" height="113.581" viewBox="0 0 85.033 113.581"><g transform="translate(-910.882 -262.203)"><g transform="translate(919.521 348.386)"><g transform="translate(0)"><path d="M15.39,162.024c0-5.418,4.227-9.914,10.375-9.914,6.11,0,10.337,4.5,10.337,9.914a9.928,9.928,0,0,1-10.337,9.952C19.617,171.975,15.39,167.479,15.39,162.024Zm16.561,0a6.206,6.206,0,1,0-6.187,6.3A6.1,6.1,0,0,0,31.951,162.024Z" transform="translate(-15.39 -144.579)" fill="#8c8c8c"/><path d="M862.235,23.951a10.744,10.744,0,0,0-6.224,1.883V16.42h-4.15V33.634h.011c0,.077-.011.153-.011.231,0,5.456,4.227,9.952,10.375,9.952a9.928,9.928,0,0,0,10.337-9.952C872.571,28.447,868.345,23.951,862.235,23.951Zm0,16.215a6.283,6.283,0,0,1,0-12.566,6.1,6.1,0,0,1,6.187,6.264A6.092,6.092,0,0,1,862.235,40.167Z" transform="translate(-805.432 -16.42)" fill="#8c8c8c"/><path d="M516.7,157.109h4.15v3.266a8.135,8.135,0,0,1,6.955-3.765,1.442,1.442,0,0,1,.384.038v4.15a8.041,8.041,0,0,0-1.153-.077,6.842,6.842,0,0,0-6.187,3.689v11.566H516.7Z" transform="translate(-488.875 -148.829)" fill="#8c8c8c"/></g></g><g transform="translate(910.882 262.203)"><path d="M74.955,18.34H32.438L11.18,54.713,32.438,91.086H74.955L96.213,54.713ZM53.7,66.15A11.208,11.208,0,1,1,65.041,54.943,11.276,11.276,0,0,1,53.7,66.15Z" transform="translate(-11.18 -18.34)" fill="#ceeafa"/><path d="M227.265,72.9V36.527L195.377,18.34,163.49,36.527V72.9l31.887,18.187Zm-45.1-18.187a13.216,13.216,0,1,1,13.215,13.055A13.136,13.136,0,0,1,182.162,54.713Z" transform="translate(-152.861 -18.34)" fill="#8ed2f4"/><path d="M211.321,148.63H179.433L163.49,175.91l15.943,27.28h31.888l15.943-27.28Zm-15.944,42.255a15.209,15.209,0,1,1,15.395-15.208A15.3,15.3,0,0,1,195.377,190.885Z" transform="translate(-152.861 -139.538)" fill="#59bdec"/></g></g></svg>